<svg id="Layer_1" data-name="Layer 1" xmlns="http://www.w3.org/2000/svg" viewBox="0 0 540.56 416.09"><defs><style>.cls-1{fill:#050505;}.cls-2{fill:#f9f9f9;}.cls-3{fill:#fff;}.cls-4{fill:#020202;}</style></defs><title>Fishes</title><path d="M168.6-236.73c-86.21-50.62-155.75-58.89-195.55,8.38,3.87,50.9,174.91,43.46,194.24,4.16l42.86,21.29-10-24.81,13.21-38.21Z" transform="translate(26.95 297.14)"/><path class="cls-1" d="M75.41-188.73v10.3c-7.83-4.68-18.51-7.51-30.61-10.3A121.28,121.28,0,0,0,75.41-188.73Z" transform="translate(26.95 297.14)"/><path d="M103-270.75q1.45-7.25-11.92-22.87A180.25,180.25,0,0,0,40.5-282.18C49.52-279.12,66-284.6,103-270.75Z" transform="translate(26.95 297.14)"/><circle class="cls-2" cx="29.44" cy="62.55" r="4.94"/><path d="M-5.72-76.3c47.16-39,98.84-51.14,159.45-10.13q6.83,4.61,13.79,10.13Q80.89-14-5.72-76.3Z" transform="translate(26.95 297.14)"/><polyline points="177.42 221.26 211.5 252 211.5 176.49"/><circle class="cls-3" cx="51.67" cy="218.6" r="4.35"/><path d="M96.56-113c-9.06-2.74-19.4-2.41-30.6,0,10.52-5,20.48-8.46,29-8Q90.93-117,96.56-113Z" transform="translate(26.95 297.14)"/><path d="M90.71-44c-9.06,2.74-19.4,2.41-30.61,0,10.52,5,20.48,8.47,29,8Q85.07-40,90.71-44Z" transform="translate(26.95 297.14)"/><path d="M496.35-229.65q-98.1-105.06-196.19,0C312-176.64,391.94-168.09,496.35-229.65Z" transform="translate(26.95 297.14)"/><circle class="cls-3" cx="367.36" cy="57.61" r="4.35"/><polygon points="506.73 66.71 540.56 30.55 529.44 64.08 540.56 90.66 506.73 66.71"/><path class="cls-4" d="M420-282.18c-10.66-3.9-26.33-2.49-43,0l57-15C424.88-293.48,418.54-289,420-282.18Z" transform="translate(26.95 297.14)"/><path class="cls-4" d="M368.78-184.63c11.9.24,25.87-2.57,34.79-5.15-11.28,4.14-21.42,8.29-26.58,12.4C375.37-180.7,372.48-183,368.78-184.63Z" transform="translate(26.95 297.14)"/><path class="cls-4" d="M292.31-78.54c48.74-24.18,95.58-33.8,140.62-29.66,27.66-.22,40.65,15.17,45.77,34C464.37-78.54,419-52.28,382.19-45.14S331.43-76.63,292.31-78.54Z" transform="translate(26.95 297.14)"/><circle class="cls-3" cx="377.99" cy="210.02" r="4.35"/><polygon points="488.74 215.68 529.33 175.05 523.29 210.03 529.33 244.03 488.74 215.68"/><path class="cls-4" d="M381-108.42c11.56-1.57,22.26-2.66,30.84-2.59-4.5-2.47-1-7,3.39-11.78C404.57-120.55,393-115.24,381-108.42Z" transform="translate(26.95 297.14)"/><path class="cls-4" d="M365.23-44.26c5.15,4.19,12.59,2.41,20.27,0q-9,2.5-10.13,11.16C371.66-35.75,368.38-39.78,365.23-44.26Z" transform="translate(26.95 297.14)"/><path d="M171.6,55Q104.43,22.9,37.28,55C79.8,83.92,124.78,81.26,171.6,55Z" transform="translate(26.95 297.14)"/><circle class="cls-3" cx="91.06" cy="349.49" r="4.35"/><path d="M153.44,47.53c1.73.61,33.08-18.9,33.08-18.9L171.6,55l10.9,20.67L153.44,64Z" transform="translate(26.95 297.14)"/><path d="M100,38c7.42-.64,14.21-.66,19.8.56q-2-4.08,1.66-8Z" transform="translate(26.95 297.14)"/><path d="M95.54,76.7c7.41.64,14.2.66,19.79-.56q-2,4.08,1.66,8Z" transform="translate(26.95 297.14)"/><path d="M85.7,16.85Q42.85-3.67,0,16.85C27.13,35.27,55.83,33.58,85.7,16.85Z" transform="translate(26.95 297.14)"/><circle class="cls-3" cx="44.07" cy="312.27" r="2.77"/><path d="M74.11,12.06C75.21,12.44,95.22,0,95.22,0L85.7,16.85l7,13.19L74.11,22.59Z" transform="translate(26.95 297.14)"/><path d="M40,6a43.24,43.24,0,0,1,12.63.35q-1.3-2.6,1.06-5.1Z" transform="translate(26.95 297.14)"/><path d="M37.17,30.67a43.56,43.56,0,0,0,12.63-.36c-.87,1.73-.51,3.43,1.06,5.1Z" transform="translate(26.95 297.14)"/><path d="M166,91.62q-17.73-8.49-35.48,0C141.74,99.24,153.62,98.54,166,91.62Z" transform="translate(26.95 297.14)"/><circle class="cls-3" cx="164.54" cy="388.04" r="1.15"/><path d="M161.19,89.63c.45.16,8.74-5,8.74-5l-4,7,2.88,5.46L161.19,94Z" transform="translate(26.95 297.14)"/><path d="M147.06,87.11a18.14,18.14,0,0,1,5.23.15,1.74,1.74,0,0,1,.44-2.11Z" transform="translate(26.95 297.14)"/><path d="M145.89,97.34a18.12,18.12,0,0,0,5.23-.15,1.74,1.74,0,0,0,.44,2.11Z" transform="translate(26.95 297.14)"/><path d="M144.54,14.66q-17.73-8.49-35.48,0C120.29,22.29,132.18,21.59,144.54,14.66Z" transform="translate(26.95 297.14)"/><circle class="cls-3" cx="143.1" cy="311.09" r="1.15"/><path d="M139.75,12.68c.45.16,8.73-5,8.73-5l-3.94,7,2.88,5.47L139.75,17Z" transform="translate(26.95 297.14)"/><path d="M125.62,10.16a18.14,18.14,0,0,1,5.23.15,1.73,1.73,0,0,1,.43-2.11Z" transform="translate(26.95 297.14)"/><path d="M124.45,20.39a18.14,18.14,0,0,0,5.23-.15,1.74,1.74,0,0,0,.44,2.11Z" transform="translate(26.95 297.14)"/><path d="M71.37,80.57a27.33,27.33,0,0,0-24.72,0C54.48,85.89,62.75,85.4,71.37,80.57Z" transform="translate(26.95 297.14)"/><circle class="cls-3" cx="78.54" cy="377.22" r="0.8"/><path d="M68,79.19c.31.11,6.08-3.48,6.08-3.48l-2.74,4.86,2,3.81L68,82.23Z" transform="translate(26.95 297.14)"/><path d="M58.18,77.44a12.38,12.38,0,0,1,3.65.1,1.21,1.21,0,0,1,.3-1.47Z" transform="translate(26.95 297.14)"/><path d="M57.37,84.56a12.65,12.65,0,0,0,3.64-.1,1.22,1.22,0,0,0,.31,1.47Z" transform="translate(26.95 297.14)"/><path d="M473.07,83.32q-82.26-39.37-164.53,0C360.63,118.69,415.72,115.44,473.07,83.32Z" transform="translate(26.95 297.14)"/><circle class="cls-3" cx="368.36" cy="377.16" r="5.33"/><path d="M450.83,74.12C453,74.86,491.35,51,491.35,51L473.07,83.32l13.36,25.32-35.6-14.29Z" transform="translate(26.95 297.14)"/><path d="M385.31,62.43c9.08-.8,17.4-.81,24.25.68q-2.51-5,2-9.79Z" transform="translate(26.95 297.14)"/><path d="M379.9,109.85c9.08.79,17.4.8,24.25-.69q-2.5,5,2,9.79Z" transform="translate(26.95 297.14)"/></svg>