<svg id="Layer_1" data-name="Layer 1" xmlns="http://www.w3.org/2000/svg" viewBox="0 0 210.08 89.69"><defs><style>.cls-1{fill:#030303;}.cls-2{fill:#fff;}.cls-3{fill:#010101;}</style></defs><title>Fish_4</title><path class="cls-1" d="M0,44.25C48.74,20.07,95.58,10.46,140.62,14.6c27.66-.23,40.66,15.16,45.77,34-14.33-4.35-59.72,21.92-96.51,29.06S39.12,46.17,0,44.25Z"/><circle class="cls-2" cx="58.74" cy="35.68" r="4.35"/><polygon class="cls-3" points="169.49 41.33 210.08 0.71 204.04 35.68 210.08 69.68 169.49 41.33"/><path class="cls-1" d="M88.67,14.37c11.56-1.57,22.26-2.66,30.85-2.59-4.51-2.47-1-7,3.38-11.78C112.26,2.24,100.69,7.56,88.67,14.37Z"/><path class="cls-1" d="M72.93,78.54c5.14,4.19,12.58,2.4,20.26,0q-9,2.5-10.13,11.15C79.35,87,76.07,83,72.93,78.54Z"/></svg>