<svg id="Layer_1" data-name="Layer 1" xmlns="http://www.w3.org/2000/svg" viewBox="0 0 190.27 85.13"><defs><style>.cls-1{fill:#010101;}.cls-2{fill:#fff;}</style></defs><title>Fish_3</title><path class="cls-1" d="M0,44.78c47.16-39,98.84-51.14,159.45-10.13q6.81,4.6,13.78,10.13Q86.62,107.12,0,44.78Z"/><polyline class="cls-1" points="156.19 45.21 190.27 75.95 190.27 0.44"/><circle class="cls-2" cx="30.44" cy="42.54" r="4.35"/><path class="cls-1" d="M102.28,8.09c-9.06-2.74-19.4-2.42-30.6,0,10.51-5,20.47-8.47,29-8.06Q96.65,4.07,102.28,8.09Z"/><path class="cls-1" d="M96.43,77c-9.07,2.74-19.4,2.42-30.61,0,10.52,5,20.48,8.47,29,8.06Q90.79,81.07,96.43,77Z"/></svg>