<svg id="Icons" xmlns="http://www.w3.org/2000/svg" viewBox="0 0 483.26 710.57"><defs><style>.cls-1,.cls-13,.cls-15,.cls-20,.cls-4,.cls-5,.cls-6,.cls-8{fill:none;}.cls-1,.cls-10,.cls-17,.cls-2,.cls-3,.cls-4,.cls-5,.cls-6,.cls-7,.cls-8,.cls-9{stroke:#010101;}.cls-1,.cls-10,.cls-11,.cls-12,.cls-13,.cls-15,.cls-17,.cls-18,.cls-19,.cls-2,.cls-20,.cls-3,.cls-4,.cls-5,.cls-6,.cls-7,.cls-8,.cls-9{stroke-miterlimit:10;}.cls-1{stroke-width:5px;}.cls-12,.cls-14,.cls-17,.cls-2{fill:#fff;}.cls-2,.cls-3,.cls-4{stroke-width:4px;}.cls-10,.cls-11,.cls-15,.cls-5{stroke-width:2px;}.cls-6{stroke-width:8px;}.cls-7{fill:#3e3e3e;}.cls-10,.cls-16{fill:#010101;}.cls-11,.cls-12,.cls-13,.cls-15,.cls-18,.cls-19,.cls-20{stroke:#000;}.cls-13{stroke-width:6px;}.cls-19{fill:#f9f9fa;}</style></defs><title>Fishing_GearB&amp;amp;W</title><g id="Bob"><polyline class="cls-1" points="390.6 640.26 394.18 623.57 361.36 615.99 357.63 633.69"/><polyline class="cls-2" points="259.89 692.2 239.46 692.2 483.25 692.2"/><path class="cls-2" d="M317.85,662.22" transform="translate(-21.94 -21.01)"/><path class="cls-2" d="M423.69,649.35A26.16,26.16,0,0,1,373.81,639c-32.24,4.36-61.63,29.09-61.63,74.2H456.3C456.3,682.44,442.62,661.16,423.69,649.35Z" transform="translate(-21.94 -21.01)"/><polygon class="cls-3" points="435.26 692.2 294.84 670.94 291.13 692.2 435.26 692.2"/><line class="cls-4" x1="433.79" y1="681.57" x2="296.25" y2="659.88"/><line class="cls-5" x1="250.26" y1="700.82" x2="316.11" y2="700.82"/><line class="cls-5" x1="400.86" y1="700.82" x2="466.71" y2="700.82"/><line class="cls-5" x1="383.58" y1="709.57" x2="415.85" y2="709.57"/><line class="cls-6" x1="376.91" y1="619.35" x2="384.58" y2="584.1"/></g><g id="Boat"><path class="cls-1" d="M57.54,591.23l19.1-23.47c16.22-4.48,35.62,0,56.15,7.7l27.05,27.67C126.61,594.22,92.4,589.66,57.54,591.23Z" transform="translate(-21.94 -21.01)"/><path class="cls-7" d="M205.8,614.52c-75.06-11.92-147.18-22.18-178.1-9.17-5.55-4.18-7.43-8.23-2.1-12.05C72.81,585,136.85,596.85,205.8,614.52Z" transform="translate(-21.94 -21.01)"/><path class="cls-8" d="M216.05,616.15l-10.25-1.63" transform="translate(-21.94 -21.01)"/><path class="cls-9" d="M27.7,605.35a14.46,14.46,0,0,0,3,3.83c3.79,7,8.13,13.55,11.92,21.14,2.71,4.33,4.88,8.67,8.68,12.46,1.08.55,2.16,1.63,2.71,1.63,48.24-1.63,95.94-2.71,144.22,1l7.4.56c12.61.57,24.54,2.19,37,3.28a1.89,1.89,0,0,0,1.09-.54c1.62-4.34,3.79-8.68,5.42-13,2.17-4.34,3.79-9.22,5.9-13.37-2.44-.53-.71,2.06,0,0-11.52-1.23-22.84-3.85-34.3-5.49C142.12,602.88,68.75,592.61,27.7,605.35Z" transform="translate(-21.94 -21.01)"/><path class="cls-8" d="M38.7,652.5" transform="translate(-21.94 -21.01)"/><path class="cls-8" d="M64.1,641" transform="translate(-21.94 -21.01)"/><path class="cls-8" d="M244.83,653.81c-59.72-10.48-135.69-9.14-207.18-4.2" transform="translate(-21.94 -21.01)"/><g id="Fishing_Rod"><path class="cls-10" d="M291.56,532.7a307.78,307.78,0,0,0-29.51,28.1C271.24,551.42,281.16,542.05,291.56,532.7Z" transform="translate(-21.94 -21.01)"/><path class="cls-10" d="M228.92,599.7a1.91,1.91,0,0,1-1.1.75l-1.51.38a1.9,1.9,0,0,0-1.11.77l-4.68,6.7a2,2,0,0,0-.35,1.11v2.15a1.93,1.93,0,0,1-.24.94l-3.21,5.8v0l.22.07a8.14,8.14,0,0,1,.85.08h3.41a1.16,1.16,0,0,1,.38.06l2.84-5a1.93,1.93,0,0,1,.82-.78,9.69,9.69,0,0,0,3.37-2.79l1.81-2.38a2,2,0,0,0,.36-.81l1.1-5.64a2.15,2.15,0,0,1,.35-.79,248,248,0,0,1,29.83-39.49A326.3,326.3,0,0,0,228.92,599.7Z" transform="translate(-21.94 -21.01)"/><path class="cls-8" d="M290.91,532.77c11.32,16.42,11.33,43.68,6.7,59.61-6.76,21.2-11.17,41.83,0,58.7a12.6,12.6,0,0,0,5.44,4.35" transform="translate(-21.94 -21.01)"/></g></g><g id="Hook"><circle class="cls-11" cx="92.27" cy="22.34" r="19.34"/><circle class="cls-12" cx="92.27" cy="22.34" r="14.85"/><path class="cls-13" d="M114.21,62.68v68.63c0,29.51,43.78,29.51,43.78,0V108.06H144.51A80.1,80.1,0,0,0,158,87.57v17.05" transform="translate(-21.94 -21.01)"/><path class="cls-13" d="M114,62.68v68.63c0,29.51-43.78,29.51-43.78,0V108.06H83.73A80.1,80.1,0,0,1,70.25,87.57v17.05" transform="translate(-21.94 -21.01)"/></g><g id="Lure"><path d="M379.8,41.11c-37.31,45.77-18.14,74.61,85,108.29l7.56-3.78,2.28-1.14C452.48,84.89,419.17,55,379.8,41.11Z" transform="translate(-21.94 -21.01)"/><path d="M469.51,152.57c7.31.74,8.4-10,1.08-10.78C463.55,141.08,462.46,151.86,469.51,152.57Z" transform="translate(-21.94 -21.01)"/><circle class="cls-14" cx="448.22" cy="126.18" r="2.72"/><path d="M361.55,75c7.32.74,8.41-10,1.09-10.77C355.6,63.5,354.51,74.28,361.55,75Z" transform="translate(-21.94 -21.01)"/><circle class="cls-14" cx="340.26" cy="48.6" r="2.72"/><path class="cls-15" d="M470.15,152.6v20.9c0,9-13.33,9-13.33,0v-7.08h4.11a24.39,24.39,0,0,1-4.11-6.24v5.2" transform="translate(-21.94 -21.01)"/><path class="cls-15" d="M470.15,151.9v20.9c0,9,13.33,9,13.33,0v-7.08h-4.1a24.1,24.1,0,0,0,4.1-6.24v5.19" transform="translate(-21.94 -21.01)"/><path class="cls-13" d="M428.48,80.25,396.21,49c-13.88-13.44,6.08-34,20-20.59L427.1,39,421,45.32a52.06,52.06,0,0,1,15.78,3l-8-7.77" transform="translate(-21.94 -21.01)"/><circle class="cls-14" cx="364.08" cy="35.91" r="2.72"/></g><g id="Vest"><path class="cls-16" d="M386.84,359.34c0,9.64,45.44,9.64,45.44,0l43.82,17.72c-15.87,0-15.87,63.43,0,63.43l-7,74.66c-7.74,10.13-20.56,19.69-50.32,17.86V440l-1.08-21.24,13.8-13.43H386.84l17.31,13.86V533c-20.69,2.93-39.16-3.27-55.19-19.48l-2.7-76.28c16.59,0,16.59-60.19,0-60.19Z" transform="translate(-21.94 -21.01)"/><rect class="cls-17" x="337.49" y="422.8" width="33.9" height="10.2" rx="2"/><rect class="cls-17" x="337.49" y="439.14" width="33.9" height="10.2" rx="2"/><rect class="cls-17" x="337.49" y="455.49" width="33.9" height="10.2" rx="2"/><rect class="cls-17" x="337.61" y="422.68" width="33.9" height="10.2" rx="2"/><rect class="cls-17" x="337.61" y="439.02" width="33.9" height="10.2" rx="2"/><rect class="cls-17" x="337.61" y="455.37" width="33.9" height="10.2" rx="2"/><rect class="cls-17" x="405.41" y="422.68" width="33.9" height="10.2" rx="2"/><rect class="cls-17" x="405.41" y="439.02" width="33.9" height="10.2" rx="2"/><rect class="cls-17" x="405.41" y="455.37" width="33.9" height="10.2" rx="2"/></g><g id="Fishing_Rod-2" data-name="Fishing_Rod"><path class="cls-11" d="M39.84,465.26,53,418.44a4.23,4.23,0,0,1,1.68-2.34l2.26-1.56a4.22,4.22,0,0,0,1.71-2.46L62.12,398a4.19,4.19,0,0,0,0-2.11l-1.2-4.54a4.28,4.28,0,0,1,.11-2.53l6.11-16.75a4.26,4.26,0,0,1,1.93-2.25l3-1.63a4.2,4.2,0,0,0,1.9-2.21c21-56.34,54.94-115.71,94.64-176.43-42.93,60.73-71.71,121.66-87.36,175.83a5.61,5.61,0,0,0-.29,1.86l.85,12.52a4.21,4.21,0,0,1-.31,1.89L79,387.73a21.2,21.2,0,0,1-5.53,7.77h0a4.14,4.14,0,0,0-1.3,2.1l-3.79,14.6a4.24,4.24,0,0,0,.13,2.54l1.88,5a4.22,4.22,0,0,1,.17,2.41L59.38,471.82a4.17,4.17,0,0,1-1.93,2.69c-9.3,5.32-14.68,2-17.58-6.83A4.24,4.24,0,0,1,39.84,465.26Z" transform="translate(-21.94 -21.01)"/><circle class="cls-18" cx="68.51" cy="373.02" r="12.46"/><circle class="cls-19" cx="68.51" cy="373.02" r="5.93"/><path class="cls-20" d="M167.21,190.1c33.08,28.3,48.36,85.81,47.52,122-2.4,48.5-.16,94.5,32.87,123.84,4.85,3.61,9.51,5.83,13.91,6.13" transform="translate(-21.94 -21.01)"/></g><g id="Compass"><circle class="cls-16" cx="314.6" cy="223.03" r="64.49"/><circle class="cls-14" cx="314.6" cy="223.03" r="55.23"/><polygon points="313.83 185.67 323.1 214.21 328.83 231.84 338.1 260.38 313.83 242.74 289.56 260.38 298.83 231.84 304.56 214.21 313.83 185.67"/></g></svg>