<svg id="Fishing_Svgs" xmlns="http://www.w3.org/2000/svg" viewBox="0 0 522.75 739.58"><defs><style>.cls-1,.cls-13,.cls-15,.cls-20,.cls-5,.cls-6,.cls-7,.cls-9{fill:none;}.cls-1,.cls-10,.cls-11,.cls-17,.cls-3,.cls-4,.cls-5,.cls-6,.cls-7,.cls-8,.cls-9{stroke:#010101;}.cls-1,.cls-10,.cls-11,.cls-12,.cls-13,.cls-15,.cls-17,.cls-18,.cls-19,.cls-20,.cls-3,.cls-4,.cls-5,.cls-6,.cls-7,.cls-8,.cls-9{stroke-miterlimit:10;}.cls-1{stroke-width:5px;}.cls-19,.cls-2,.cls-8{fill:#9db889;}.cls-14,.cls-17,.cls-3{fill:#fff;}.cls-3,.cls-4,.cls-5{stroke-width:4px;}.cls-11,.cls-12,.cls-15,.cls-6{stroke-width:2px;}.cls-7{stroke-width:8px;}.cls-11,.cls-16{fill:#010101;}.cls-12,.cls-13,.cls-15,.cls-18,.cls-19,.cls-20{stroke:#000;}.cls-13{stroke-width:6px;}</style></defs><title>Fishing_Gear_Colored</title><g id="Bob"><polyline class="cls-1" points="429.09 596.83 432.68 580.13 399.85 572.55 396.13 590.25"/><path class="cls-2" d="M502.09,621a26.16,26.16,0,0,1-49.88-10.35c-32.24,4.36-61.63,29.1-61.63,74.2H534.7C534.7,654.06,521,632.78,502.09,621Z" transform="translate(-60.84 -40.06)"/><polyline class="cls-3" points="299.39 644.76 278.95 644.76 522.75 644.76"/><path class="cls-3" d="M374.35,702.29" transform="translate(-60.84 -40.06)"/><polygon class="cls-4" points="474.75 644.76 334.34 623.51 330.63 644.76 474.75 644.76"/><line class="cls-5" x1="473.28" y1="634.14" x2="335.74" y2="612.45"/><line class="cls-6" x1="289.76" y1="653.39" x2="355.61" y2="653.39"/><line class="cls-6" x1="440.36" y1="653.39" x2="506.21" y2="653.39"/><line class="cls-6" x1="423.07" y1="662.14" x2="455.34" y2="662.14"/><line class="cls-7" x1="416.4" y1="574.91" x2="424.07" y2="539.66"/></g><g id="Boat"><path class="cls-1" d="M96.44,316.3l19.1-23.48c16.22-4.47,35.62,0,56.15,7.7l27.06,27.68C165.51,319.28,131.31,314.72,96.44,316.3Z" transform="translate(-60.84 -40.06)"/><path class="cls-8" d="M244.71,339.58C169.64,327.66,97.52,317.4,66.6,330.41c-5.55-4.17-7.42-8.23-2.09-12C111.71,310.1,175.76,321.91,244.71,339.58Z" transform="translate(-60.84 -40.06)"/><path class="cls-9" d="M255,341.22l-10.24-1.64" transform="translate(-60.84 -40.06)"/><path class="cls-10" d="M66.6,330.41a14.5,14.5,0,0,0,3,3.83c3.8,7.05,8.13,13.55,11.93,21.14,2.71,4.34,4.88,8.67,8.67,12.47,1.08.54,2.17,1.63,2.71,1.63,48.24-1.63,95.94-2.72,144.22,1l7.4.55c12.62.57,24.54,2.2,37,3.28a1.89,1.89,0,0,0,1.08-.54c1.63-4.33,3.8-8.67,5.42-13,2.17-4.33,3.8-9.21,5.91-13.36-2.45-.54-.72,2.06,0,0-11.53-1.24-22.84-3.86-34.31-5.5C181,327.94,107.65,317.68,66.6,330.41Z" transform="translate(-60.84 -40.06)"/><path class="cls-9" d="M77.6,377.56" transform="translate(-60.84 -40.06)"/><path class="cls-9" d="M103,366" transform="translate(-60.84 -40.06)"/><path class="cls-9" d="M283.73,378.87C224,368.39,148,369.73,76.55,374.68" transform="translate(-60.84 -40.06)"/><g id="Fishing_Rod"><path class="cls-11" d="M330.47,257.76A307.84,307.84,0,0,0,301,285.87C310.15,276.48,320.07,267.11,330.47,257.76Z" transform="translate(-60.84 -40.06)"/><path class="cls-11" d="M267.82,324.77a1.9,1.9,0,0,1-1.1.75l-1.5.37a1.94,1.94,0,0,0-1.12.78l-4.67,6.69a1.92,1.92,0,0,0-.35,1.11v2.15a1.93,1.93,0,0,1-.24.94l-3.21,5.81h0l.21.07.85.08h3.41a1.44,1.44,0,0,1,.38.06l2.85-5a2,2,0,0,1,.82-.78A9.55,9.55,0,0,0,267.5,335l1.81-2.38a1.87,1.87,0,0,0,.36-.8l1.1-5.65a2.65,2.65,0,0,1,.35-.79A247.58,247.58,0,0,1,301,285.87,325.5,325.5,0,0,0,267.82,324.77Z" transform="translate(-60.84 -40.06)"/><path class="cls-9" d="M329.81,257.83c11.33,16.43,11.33,43.69,6.71,59.61-6.77,21.2-11.18,41.83,0,58.71A12.59,12.59,0,0,0,342,380.5" transform="translate(-60.84 -40.06)"/></g></g><g id="Hook"><circle class="cls-12" cx="426.65" cy="49.17" r="19.34"/><circle class="cls-8" cx="426.65" cy="49.17" r="14.85"/><path class="cls-13" d="M487.49,108.57V177.2c0,29.51,43.78,29.51,43.78,0V154H517.79a79.93,79.93,0,0,0,13.48-20.49v17" transform="translate(-60.84 -40.06)"/><path class="cls-13" d="M487.31,108.57V177.2c0,29.51-43.78,29.51-43.78,0V154H457a79.67,79.67,0,0,1-13.48-20.49v17" transform="translate(-60.84 -40.06)"/></g><g id="Lure"><path d="M151,639.51c-37.3,45.77-18.13,74.61,85,108.29l7.57-3.78,2.28-1.14C223.69,683.29,190.38,653.35,151,639.51Z" transform="translate(-60.84 -40.06)"/><path d="M240.72,751c7.32.74,8.41-10,1.09-10.78C234.77,739.48,233.68,750.26,240.72,751Z" transform="translate(-60.84 -40.06)"/><circle class="cls-14" cx="180.53" cy="705.52" r="2.72"/><path d="M132.77,673.39c7.32.74,8.41-10,1.09-10.77C126.82,661.9,125.73,672.68,132.77,673.39Z" transform="translate(-60.84 -40.06)"/><circle class="cls-14" cx="72.58" cy="627.94" r="2.72"/><path class="cls-15" d="M241.37,751v20.9c0,9-13.33,9-13.33,0v-7.08h4.1a24.36,24.36,0,0,1-4.1-6.24v5.2" transform="translate(-60.84 -40.06)"/><path class="cls-15" d="M241.37,750.3v20.9c0,9,13.33,9,13.33,0v-7.08h-4.1a24.36,24.36,0,0,0,4.1-6.24v5.19" transform="translate(-60.84 -40.06)"/><path class="cls-13" d="M199.7,678.65l-32.27-31.28c-13.88-13.44,6.07-34,19.95-20.59l10.93,10.6-6.14,6.34a52.12,52.12,0,0,1,15.78,3l-8-7.77" transform="translate(-60.84 -40.06)"/><circle class="cls-14" cx="96.39" cy="615.25" r="2.72"/></g><g id="Vest"><path class="cls-16" d="M440.26,280c0,9.64,45.44,9.64,45.44,0l43.82,17.72c-15.87,0-15.87,63.44,0,63.44l-7,74.65c-7.74,10.13-20.56,19.69-50.31,17.86V360.56l-1.08-21.24,13.79-13.43H440.26l17.31,13.86V453.62c-20.69,2.93-39.15-3.27-55.18-19.48l-2.71-76.28c16.59,0,16.59-60.19,0-60.19Z" transform="translate(-60.84 -40.06)"/><rect class="cls-17" x="352" y="324.35" width="33.9" height="10.2" rx="2"/><rect class="cls-17" x="352" y="340.7" width="33.9" height="10.2" rx="2"/><rect class="cls-17" x="352" y="357.04" width="33.9" height="10.2" rx="2"/><rect class="cls-8" x="352.13" y="324.23" width="33.9" height="10.2" rx="2"/><rect class="cls-8" x="352.13" y="340.58" width="33.9" height="10.2" rx="2"/><rect class="cls-8" x="352.13" y="356.92" width="33.9" height="10.2" rx="2"/><rect class="cls-8" x="419.93" y="324.23" width="33.9" height="10.2" rx="2"/><rect class="cls-8" x="419.93" y="340.58" width="33.9" height="10.2" rx="2"/><rect class="cls-8" x="419.93" y="356.92" width="33.9" height="10.2" rx="2"/></g><g id="Fishing_Rod-2" data-name="Fishing_Rod"><path class="cls-12" d="M64.58,171.24l13.79-23.4a2.37,2.37,0,0,1,1.24-1l1.44-.51a2.39,2.39,0,0,0,1.28-1.08l3.91-7.09a2.39,2.39,0,0,0,.3-1.14v-2.62A2.35,2.35,0,0,1,87,133l5.7-8.16a2.34,2.34,0,0,1,1.36-.94l1.84-.46a2.37,2.37,0,0,0,1.34-.92c19.41-27.41,46.25-54.61,76.39-81.7-31.89,26.63-56.16,55.41-72.37,82.42a3,3,0,0,0-.43,1l-1.34,6.89a2.18,2.18,0,0,1-.43,1L96.81,135a11.76,11.76,0,0,1-4.11,3.4h0a2.41,2.41,0,0,0-1,1l-4.13,7.34a2.35,2.35,0,0,0-.3,1.4l.3,3a2.28,2.28,0,0,1-.26,1.33L74.18,177.58a2.29,2.29,0,0,1-1.42,1.18c-5.79,1.54-8.21-1-8.51-6.21A2.27,2.27,0,0,1,64.58,171.24Z" transform="translate(-60.84 -40.06)"/><circle class="cls-18" cx="41.27" cy="99.97" r="6.96"/><circle class="cls-19" cx="41.27" cy="99.97" r="3.31"/><path class="cls-20" d="M172.79,40.91c13.81,20,13.81,53.27,8.18,72.69-8.25,25.85-13.63,51,0,71.59,2.1,2.64,4.3,4.5,6.62,5.3" transform="translate(-60.84 -40.06)"/></g><g id="Compass"><circle class="cls-16" cx="119.43" cy="452.44" r="83.36"/><circle class="cls-2" cx="119.43" cy="452.44" r="71.38"/><polygon points="118.44 404.17 130.42 441.05 137.83 463.84 149.81 500.72 118.44 477.93 87.06 500.72 99.05 463.84 106.45 441.05 118.44 404.17"/></g></svg>