<?xml version="1.0" encoding="utf-8"?>
<!-- Generator: Adobe Illustrator 23.0.3, SVG Export Plug-In . SVG Version: 6.00 Build 0)  -->
<svg version="1.1" id="Layer_1" xmlns="http://www.w3.org/2000/svg" xmlns:xlink="http://www.w3.org/1999/xlink" x="0px" y="0px"
	 viewBox="0 0 213.4 119.8" style="enable-background:new 0 0 213.4 119.8;" xml:space="preserve">
<style type="text/css">
	.st0{fill:#010101;}
	.st1{fill:#FFFFFF;}
	.st2{fill:#030303;}
</style>
<path class="st0" d="M196.2,67.5c-65.4-70-130.8-70-196.2,0C11.8,120.5,91.8,129.1,196.2,67.5z"/>
<circle class="st1" cx="40.3" cy="57.6" r="4.3"/>
<polygon class="st0" points="179.6,66.7 213.4,30.6 202.3,64.1 213.4,90.7 "/>
<path class="st2" d="M119.8,15c-10.7-3.9-26.3-2.5-43,0l57-15C124.7,3.7,118.4,8.1,119.8,15z"/>
<path class="st2" d="M68.6,112.5c11.9,0.2,25.9-2.6,34.8-5.2c-11.3,4.1-21.4,8.3-26.6,12.4C75.2,116.4,72.3,114.1,68.6,112.5z"/>
</svg>
