<svg id="Layer_1" data-name="Layer 1" xmlns="http://www.w3.org/2000/svg" viewBox="0 0 186.52 99.3"><defs><style>.cls-1{fill:#010101;}.cls-2{fill:#fff;}</style></defs><title>Fishes_5</title><path class="cls-1" d="M171.6,55Q104.43,22.9,37.28,55C79.8,83.92,124.78,81.26,171.6,55Z"/><circle class="cls-2" cx="64.12" cy="52.35" r="4.35"/><path class="cls-1" d="M153.44,47.53c1.73.61,33.08-18.9,33.08-18.9L171.6,55l10.9,20.67L153.44,64Z"/><path class="cls-1" d="M100,38c7.42-.64,14.21-.66,19.8.56q-2-4.08,1.66-8Z"/><path class="cls-1" d="M95.54,76.7c7.41.64,14.2.66,19.79-.56q-2,4.08,1.66,8Z"/><path class="cls-1" d="M85.7,16.85Q42.85-3.67,0,16.85C27.13,35.27,55.83,33.58,85.7,16.85Z"/><circle class="cls-2" cx="17.12" cy="15.13" r="2.77"/><path class="cls-1" d="M74.11,12.06C75.21,12.44,95.22,0,95.22,0L85.7,16.85l7,13.19L74.11,22.59Z"/><path class="cls-1" d="M40,6a43.24,43.24,0,0,1,12.63.35q-1.3-2.6,1.06-5.1Z"/><path class="cls-1" d="M37.17,30.67a43.56,43.56,0,0,0,12.63-.36c-.87,1.73-.51,3.43,1.06,5.1Z"/><path class="cls-1" d="M166,91.62q-17.73-8.49-35.48,0C141.74,99.24,153.62,98.54,166,91.62Z"/><circle class="cls-2" cx="137.59" cy="90.91" r="1.15"/><path class="cls-1" d="M161.19,89.63c.45.16,8.74-5,8.74-5l-4,7,2.88,5.46L161.19,94Z"/><path class="cls-1" d="M147.06,87.11a18.14,18.14,0,0,1,5.23.15,1.74,1.74,0,0,1,.44-2.11Z"/><path class="cls-1" d="M145.89,97.34a18.12,18.12,0,0,0,5.23-.15,1.74,1.74,0,0,0,.44,2.11Z"/><path class="cls-1" d="M144.54,14.66q-17.73-8.49-35.48,0C120.29,22.29,132.18,21.59,144.54,14.66Z"/><circle class="cls-2" cx="116.15" cy="13.95" r="1.15"/><path class="cls-1" d="M139.75,12.68c.45.16,8.73-5,8.73-5l-3.94,7,2.88,5.47L139.75,17Z"/><path class="cls-1" d="M125.62,10.16a18.14,18.14,0,0,1,5.23.15,1.73,1.73,0,0,1,.43-2.11Z"/><path class="cls-1" d="M124.45,20.39a18.14,18.14,0,0,0,5.23-.15,1.74,1.74,0,0,0,.44,2.11Z"/><path class="cls-1" d="M71.37,80.57a27.33,27.33,0,0,0-24.72,0C54.48,85.89,62.75,85.4,71.37,80.57Z"/><circle class="cls-2" cx="51.59" cy="80.08" r="0.8"/><path class="cls-1" d="M68,79.19c.31.11,6.08-3.48,6.08-3.48l-2.74,4.86,2,3.81L68,82.23Z"/><path class="cls-1" d="M58.18,77.44a12.38,12.38,0,0,1,3.65.1,1.21,1.21,0,0,1,.3-1.47Z"/><path class="cls-1" d="M57.37,84.56a12.65,12.65,0,0,0,3.64-.1,1.22,1.22,0,0,0,.31,1.47Z"/></svg>