<?xml version="1.0" encoding="utf-8"?>
<!-- Generator: Adobe Illustrator 23.0.3, SVG Export Plug-In . SVG Version: 6.00 Build 0)  -->
<svg version="1.1" id="Layer_1" xmlns="http://www.w3.org/2000/svg" xmlns:xlink="http://www.w3.org/1999/xlink" x="0px" y="0px"
	 viewBox="0 0 243.8 127.3" style="enable-background:new 0 0 243.8 127.3;" xml:space="preserve">
<style type="text/css">
	.st0{fill:#FFFFFF;stroke:#010101;stroke-width:4;stroke-miterlimit:10;}
	.st1{stroke:#010101;stroke-width:4;stroke-miterlimit:10;}
	.st2{fill:none;stroke:#010101;stroke-width:4;stroke-miterlimit:10;}
	.st3{fill:none;stroke:#010101;stroke-width:2;stroke-miterlimit:10;}
	.st4{fill:none;stroke:#010101;stroke-width:5;stroke-miterlimit:10;}
	.st5{fill:none;stroke:#010101;stroke-width:8;stroke-miterlimit:10;}
</style>
<polyline class="st0" points="20.4,109 0,109 243.8,109 "/>
<path class="st0" d="M34.6,126.4"/>
<path class="st0" d="M162.3,45.1c-4.2,8.9-13.2,15.1-23.7,15.1c-14.2,0-25.8-11.4-26.2-25.5C80.2,39.1,50.8,63.8,50.8,109h144.1
	C194.9,78.2,181.2,56.9,162.3,45.1z"/>
<polygon class="st1" points="195.8,109 55.4,87.7 51.7,109 "/>
<line class="st2" x1="194.3" y1="98.3" x2="56.8" y2="76.6"/>
<line class="st3" x1="10.8" y1="117.6" x2="76.7" y2="117.6"/>
<line class="st3" x1="161.4" y1="117.6" x2="227.3" y2="117.6"/>
<line class="st3" x1="144.1" y1="126.3" x2="176.4" y2="126.3"/>
<polyline class="st4" points="151.1,57 154.7,40.3 121.9,32.7 118.2,50.4 "/>
<line class="st5" x1="136.4" y1="36.1" x2="144.1" y2="0.9"/>
</svg>
