<?xml version="1.0" encoding="utf-8"?>
<!-- Generator: Adobe Illustrator 23.0.3, SVG Export Plug-In . SVG Version: 6.00 Build 0)  -->
<svg version="1.1" id="Layer_1" xmlns="http://www.w3.org/2000/svg" xmlns:xlink="http://www.w3.org/1999/xlink" x="0px" y="0px"
	 viewBox="0 0 127.7 160.2" style="enable-background:new 0 0 127.7 160.2;" xml:space="preserve">
<style type="text/css">
	.st0{fill:#FFFFFF;}
	.st1{fill:none;stroke:#000000;stroke-width:2;stroke-miterlimit:10;}
	.st2{fill:none;stroke:#000000;stroke-width:6;stroke-miterlimit:10;}
</style>
<g id="Lure">
	<path d="M23,20.1c-37.3,45.8-18.1,74.6,85,108.3l7.6-3.8l2.3-1.1C95.7,63.9,62.4,33.9,23,20.1z"/>
	<path d="M112.7,131.6c7.3,0.7,8.4-10,1.1-10.8C106.8,120.1,105.7,130.9,112.7,131.6z"/>
	<circle class="st0" cx="113.4" cy="126.2" r="2.7"/>
	<path d="M4.8,54c7.3,0.7,8.4-10,1.1-10.8C-1.2,42.5-2.3,53.3,4.8,54z"/>
	<circle class="st0" cx="5.4" cy="48.6" r="2.7"/>
	<path class="st1" d="M113.4,131.6v20.9c0,9-13.3,9-13.3,0v-7.1h4.1c-1.6-1.8-3-3.9-4.1-6.2v5.2"/>
	<path class="st1" d="M113.4,130.9l0,20.9c0,9,13.3,9,13.3,0v-7.1h-4.1c1.6-1.8,3-3.9,4.1-6.2v5.2"/>
	<path class="st2" d="M71.7,59.2L39.4,28c-13.9-13.4,6.1-34,20-20.6L70.3,18l-6.1,6.3c5.2,0.2,10.5,1.1,15.8,3l-8-7.8"/>
	<circle class="st0" cx="29.2" cy="35.9" r="2.7"/>
</g>
</svg>
