<svg id="Layer_1" data-name="Layer 1" xmlns="http://www.w3.org/2000/svg" viewBox="0 0 281.27 123.97"><defs><style>.cls-1,.cls-3{fill:none;}.cls-1,.cls-2,.cls-3,.cls-4,.cls-5{stroke:#010101;stroke-miterlimit:10;}.cls-1{stroke-width:5px;}.cls-2{fill:#3e3e3e;}.cls-5{fill:#010101;stroke-width:2px;}</style></defs><title>Icon_Boat</title><g id="Boat"><path class="cls-1" d="M35.6,59.3,54.7,35.83c16.22-4.48,35.62,0,56.15,7.69L137.9,71.2C104.67,62.29,70.47,57.73,35.6,59.3Z"/><path class="cls-2" d="M183.87,82.59C108.8,70.67,36.68,60.41,5.76,73.42c-5.55-4.18-7.42-8.23-2.1-12.05C50.87,53.1,114.91,64.92,183.87,82.59Z"/><path class="cls-3" d="M194.11,84.22l-10.24-1.63"/><path class="cls-4" d="M5.76,73.42a14.46,14.46,0,0,0,3,3.83c3.8,7,8.13,13.55,11.93,21.14,2.71,4.33,4.87,8.67,8.67,12.46,1.08.54,2.17,1.63,2.71,1.63,48.24-1.63,95.94-2.71,144.22,1l7.4.55c12.61.58,24.54,2.2,37,3.29a1.89,1.89,0,0,0,1.08-.54c1.63-4.34,3.79-8.68,5.42-13,2.17-4.34,3.79-9.22,5.91-13.37-2.45-.54-.72,2.06,0,0-11.53-1.23-22.84-3.86-34.31-5.49C120.18,71,46.81,60.68,5.76,73.42Z"/><path class="cls-3" d="M16.76,120.56"/><path class="cls-3" d="M42.17,109"/><path class="cls-3" d="M222.89,121.87c-59.72-10.47-135.69-9.13-207.18-4.19"/><g id="Fishing_Rod"><path class="cls-5" d="M269.62.77a307.63,307.63,0,0,0-29.5,28.1C249.31,19.48,259.22,10.12,269.62.77Z"/><path class="cls-5" d="M207,67.77a1.88,1.88,0,0,1-1.1.75l-1.5.38a1.93,1.93,0,0,0-1.12.77l-4.67,6.7a1.89,1.89,0,0,0-.35,1.1v2.16a2,2,0,0,1-.24.93l-3.21,5.81,0,0a.81.81,0,0,1,.22.07,8.14,8.14,0,0,1,.85.08h3.41a1.16,1.16,0,0,1,.38.06l2.85-5a1.87,1.87,0,0,1,.82-.78A9.66,9.66,0,0,0,206.66,78l1.81-2.39a1.82,1.82,0,0,0,.36-.8l1.1-5.64a2.55,2.55,0,0,1,.35-.79,247,247,0,0,1,29.84-39.49A325.5,325.5,0,0,0,207,67.77Z"/><path class="cls-3" d="M269,.84c11.32,16.42,11.33,43.68,6.71,59.61-6.77,21.19-11.18,41.82,0,58.7a12.52,12.52,0,0,0,5.43,4.35"/></g></g></svg>