<svg id="Layer_1" data-name="Layer 1" xmlns="http://www.w3.org/2000/svg" viewBox="0 0 124.51 150.9"><defs><style>.cls-1,.cls-2,.cls-3,.cls-4{stroke:#000;stroke-miterlimit:10;}.cls-1{stroke-width:2px;}.cls-3{fill:#f9f9fa;}.cls-4{fill:none;}</style></defs><title>Icon_FishingRod</title><g id="Fishing_Rod"><path class="cls-1" d="M1.33,131.18l13.79-23.4a2.37,2.37,0,0,1,1.24-1l1.45-.51a2.35,2.35,0,0,0,1.27-1.09L23,98.07a2.38,2.38,0,0,0,.29-1.14V94.31A2.36,2.36,0,0,1,23.72,93l5.69-8.16a2.36,2.36,0,0,1,1.37-.94l1.83-.46A2.31,2.31,0,0,0,34,82.47C53.37,55.06,80.21,27.86,110.34.77,78.46,27.4,54.19,56.18,38,83.19a3.05,3.05,0,0,0-.42,1L36.21,91a2.36,2.36,0,0,1-.44,1l-2.21,2.91a11.73,11.73,0,0,1-4.1,3.4h0a2.35,2.35,0,0,0-1,1l-4.14,7.34A2.34,2.34,0,0,0,24,108l.3,3a2.4,2.4,0,0,1-.26,1.32L10.94,137.52a2.33,2.33,0,0,1-1.43,1.18c-5.78,1.54-8.21-1-8.51-6.21A2.44,2.44,0,0,1,1.33,131.18Z"/><circle class="cls-2" cx="38.87" cy="99.97" r="6.96"/><circle class="cls-3" cx="38.87" cy="99.97" r="3.31"/><path class="cls-4" d="M109.55.85c13.8,20,13.81,53.27,8.17,72.69-8.25,25.85-13.63,51,0,71.59,2.1,2.64,4.3,4.5,6.63,5.3"/></g></svg>