<svg id="Layer_1" data-name="Layer 1" xmlns="http://www.w3.org/2000/svg" viewBox="0 0 129.84 174.37"><defs><style>.cls-1{fill:#010101;}.cls-2{fill:#fff;stroke:#010101;stroke-miterlimit:10;}</style></defs><title>Icon_Vest</title><g id="Vest"><path class="cls-1" d="M40.58,0C40.58,9.63,86,9.63,86,0l43.82,17.71c-15.87,0-15.87,63.44,0,63.44l-7,74.66c-7.74,10.13-20.56,19.69-50.31,17.85v-93L71.41,59.37l13.8-13.44H40.58L57.89,59.8V173.66C37.2,176.6,18.73,170.4,2.71,154.19L0,77.91c16.59,0,16.59-60.2,0-60.2Z"/><rect class="cls-2" x="13.16" y="84.46" width="33.9" height="10.2" rx="2"/><rect class="cls-2" x="13.16" y="100.8" width="33.9" height="10.2" rx="2"/><rect class="cls-2" x="13.16" y="117.15" width="33.9" height="10.2" rx="2"/><rect class="cls-2" x="13.28" y="84.34" width="33.9" height="10.2" rx="2"/><rect class="cls-2" x="13.28" y="100.68" width="33.9" height="10.2" rx="2"/><rect class="cls-2" x="13.28" y="117.03" width="33.9" height="10.2" rx="2"/><rect class="cls-2" x="81.09" y="84.34" width="33.9" height="10.2" rx="2"/><rect class="cls-2" x="81.09" y="100.68" width="33.9" height="10.2" rx="2"/><rect class="cls-2" x="81.09" y="117.03" width="33.9" height="10.2" rx="2"/></g></svg>